*******************************************************************************
                      J Edgar.2011.Cam.Xvid-SiNiSTER
*******************************************************************************

-------------------------------------------------------------------------------
                              General Information
-------------------------------------------------------------------------------

[img]http://www.pix2links.com/image/1MzG9.jpg[/img]


Format                           : AVI
Format/Info                      : Audio Video Interleave
File size                        : 1.55 GiB
Duration                         : 2h 1mn
Overall bit rate                 : 1 825 Kbps
Writing library                  : VirtualDub build 32839/release

Video
ID                               : 0
Format                           : MPEG-4 Visual
Format profile                   : Advanced Simple@L5
Format settings, BVOP            : Yes
Format settings, QPel            : Yes
Format settings, GMC             : 3 warppoints
Format settings, Matrix          : Default (H.263)
Muxing mode                      : Packed bitstream
Codec ID                         : XVID
Codec ID/Hint                    : XviD
Duration                         : 2h 1mn
Bit rate                         : 1 687 Kbps
Width                            : 720 pixels
Height                           : 304 pixels
Display aspect ratio             : 2.35:1
Frame rate                       : 24.000 fps
Color space                      : YUV
Chroma subsampling               : 4:2:0
Bit depth                        : 8 bits
Scan type                        : Progressive
Bits/(Pixel*Frame)               : 0.321
Stream size                      : 1.43 GiB (92%)
Writing library                  : XviD 64

Audio
ID                               : 1
Format                           : MPEG Audio
Format version                   : Version 1
Format profile                   : Layer 3
Mode                             : Joint stereo
Mode extension                   : MS Stereo
Codec ID                         : 55
Codec ID/Hint                    : MP3
Duration                         : 2h 1mn
Bit rate mode                    : Constant
Bit rate                         : 128 Kbps
Channel(s)                       : 2 channels
Sampling rate                    : 44.1 KHz
Stream size                      : 111 MiB (7%)
Alignment                        : Split accross interleaves
Interleave, duration             : 42 ms (1.00 video frame)
Interleave, preload duration     : 500 ms
Writing library                  : LAME3.98r




Video Source: FYA.....thanks	
Audio Source: FYA.....thanks


Greets:
DarkScene,HDScene,Noir,CrEwSaDe,blackjesus,ViSiON,HDLiTE,BTVRG,Twentyforty,UnKnOwN,
FLAWL3SS,Rx,Relizlab,MiSTERE,ILLUMiNATI,SAFCuk009,HiVE-CM8..... and everybody else we 
respect.. u know who u are
  
-------------------------------------------------------------------------------
                               Post Information
-------------------------------------------------------------------------------
Encoded by...........: SiNiSTER
 
Have sumthing to offer..looking for suppliers... cammers,cams,screeners, audio
supplier.. and any pre retail DVD/BR any RC...if u can provide any email us at
sinister@hushmail.me
-------------------------------------------------------------------------------
                                 Release Notes
-------------------------------------------------------------------------------

source was ok.. degrained, denoised, slight smoother.. RGB adjustment, gamma
levels and sharpened.. then jsut muxed the Cam audio back to my encode....enjoy



-------------------------------------------------------------------------------
                                 ScreenShots
-------------------------------------------------------------------------------
 
http://www.pix2links.com/image/VXFHw.png 
http://www.pix2links.com/image/GrPqA.png 
http://www.pix2links.com/image/LHi14.png 
http://www.pix2links.com/image/Kazx.png 
http://www.pix2links.com/image/LfGbe.jpg


-------------------------------------------------------------------------------

[img]http://leetleech.org/images/33506450373550172140.gif[/img]


-------------------------------------------------------------------------------
Generated with Cool NFO Creator - http://fly.to/coolbeans
-------------------------------------------------------------------------------
